<?xml version="1.0" encoding="UTF-8"?>
<svg width="48px" height="48px" viewBox="0 0 48 48" version="1.1" xmlns="http://www.w3.org/2000/svg" xmlns:xlink="http://www.w3.org/1999/xlink">
    <!-- Generator: Sketch 52.1 (67048) - http://www.bohemiancoding.com/sketch -->
    <title>diet</title>
    <desc>Created with Sketch.</desc>
    <g id="景区电商" stroke="none" stroke-width="1" fill="none" fill-rule="evenodd">
        <g id="首页" transform="translate(-305.000000, -309.000000)" fill-rule="nonzero">
            <rect id="bg" fill="#F8F8F8" x="0" y="0" width="375" height="667" rx="1"></rect>
            <g id="Group-2" transform="translate(0.000000, 284.000000)">
                <rect id="Rectangle" fill="#FFFFFF" x="0" y="0" width="375" height="124"></rect>
                <g id="Group-9" transform="translate(305.000000, 25.000000)">
                    <circle id="Oval-Copy-7" fill="#EEEEEE" cx="24" cy="24" r="24"></circle>
                    <g id="hamburger" transform="translate(12.000000, 13.000000)">
                        <path d="M21.8987852,7.88473376 L3.08350384,7.88473376 C3.18682864,7.22725152 3.36042199,6.60290244 3.67455243,6.01155861 L6.06368286,6.01155861 C6.44392583,6.01155861 6.7581202,5.70146289 6.7581202,5.31684953 C6.7581202,4.93645777 6.44814578,4.62214045 6.06368286,4.62214045 L4.60875959,4.62214045 C4.91873402,4.27481789 5.23292839,3.96465821 5.61317136,3.68763169 L9.14725064,3.68763169 C9.52749361,3.68763169 9.84168798,3.37753597 9.84168798,2.99292261 C9.84168798,2.61253085 9.53171355,2.29821353 9.14725064,2.29821353 L7.96924552,2.29821353 C9.32084399,1.74409653 10.8460997,1.39677398 12.5077366,1.39677398 C17.3933504,1.40515321 21.4151535,4.24590633 21.8987852,7.88473376 Z" id="Shape" fill="#FFFFFF"></path>
                        <path d="M3.7407289,20.2608663 L21.2043478,20.2608663 C21.5845908,20.2608663 21.8987852,19.9507706 21.8987852,19.5661572 L21.8987852,16.9321346 L3.05044757,16.9321346 L3.05044757,19.5661572 C3.05044757,19.9507066 3.36048593,20.2608663 3.7407289,20.2608663 Z" id="Shape" fill="#C9AB5D"></path>
                        <path d="M22.8370844,11.8378146 L2.11214834,11.8378146 C1.73190537,11.8378146 1.38465473,12.1479103 1.38465473,12.5655928 C1.38465473,12.9459846 1.69462916,13.2933711 2.11214834,13.2933711 L22.8701407,13.2933711 C23.2504476,13.2933711 23.5976343,12.9832754 23.5976343,12.5655928 C23.5645141,12.1520679 23.2503836,11.8378146 22.8370844,11.8378146 Z" id="Shape" fill="#FFFFFF"></path>
                        <path d="M22.5932225,15.546938 L2.35601023,15.546938 C1.97576726,15.546938 1.66157289,15.8570337 1.66157289,16.2416471 L1.66157289,19.5703149 C1.66157289,20.7157117 2.59571611,21.6502205 3.74066496,21.6502205 L21.2042839,21.6502205 C22.3492327,21.6502205 23.283376,20.7157117 23.283376,19.5703149 L23.283376,16.2416471 C23.2875959,15.8611914 22.9734655,15.546938 22.5932225,15.546938 Z M21.8987852,19.5703149 C21.8987852,19.9507066 21.5888107,20.2650239 21.2043478,20.2650239 L3.7407289,20.2650239 C3.36048593,20.2650239 3.04629156,19.9549282 3.04629156,19.5703149 L3.04629156,16.9362922 L21.8987852,16.9362922 L21.8987852,19.5703149 Z" id="Shape" fill="#333333"></path>
                        <path d="M22.8370844,10.452554 L2.11214834,10.452554 C0.967199488,10.452554 0,11.3870628 0,12.5655289 C0,13.7109257 0.934143223,14.6785037 2.11214834,14.6785037 L22.8701407,14.6785037 C24.0150895,14.6785037 24.982289,13.7439949 24.982289,12.5655289 C24.9492327,11.3870628 24.0150895,10.452554 22.8370844,10.452554 Z M22.8370844,13.2602379 L2.11214834,13.2602379 C1.73190537,13.2602379 1.38465473,12.9501422 1.38465473,12.5324597 C1.38465473,12.1520679 1.69462916,11.8046814 2.11214834,11.8046814 L22.8701407,11.8046814 C23.2504476,11.8046814 23.5976343,12.1147771 23.5976343,12.5324597 C23.5645141,12.9459846 23.2503836,13.2602379 22.8370844,13.2602379 Z" id="Shape" fill="#333333"></path>
                        <path d="M2.35601023,9.27408795 L22.5931586,9.27408795 C22.9734015,9.27408795 23.2875959,8.99706144 23.2875959,8.57937888 C23.2875959,3.86545061 18.4349744,0.0157350551 12.4746164,0.0157350551 C6.51425831,0.0157350551 1.66163683,3.86545061 1.66163683,8.57937888 C1.62858056,8.9267654 1.97576726,9.27408795 2.35601023,9.27408795 Z M3.67461637,6.01565228 L6.0637468,6.01565228 C6.44398977,6.01565228 6.75818414,5.70555656 6.75818414,5.3209432 C6.75818414,4.93632984 6.44820972,4.62623412 6.0637468,4.62623412 L4.60875959,4.62623412 C4.91873402,4.27891156 5.23292839,3.96875188 5.61317136,3.69172536 L9.14725064,3.69172536 C9.52749361,3.69172536 9.84168798,3.38162964 9.84168798,2.99701628 C9.84168798,2.61662453 9.53171355,2.30230721 9.14725064,2.30230721 L7.96924552,2.30230721 C9.32084399,1.74819021 10.8460997,1.40086765 12.5077366,1.40086765 C17.3934143,1.40502528 21.4152174,4.2457784 21.8988491,7.88460583 L3.08350384,7.88460583 C3.18682864,7.22725152 3.36048593,6.60283848 3.67461637,6.01565228 Z" id="Shape" fill="#333333"></path>
                    </g>
                </g>
            </g>
        </g>
    </g>
</svg>