<?xml version="1.0" encoding="UTF-8"?>
<svg width="48px" height="48px" viewBox="0 0 48 48" version="1.1" xmlns="http://www.w3.org/2000/svg" xmlns:xlink="http://www.w3.org/1999/xlink">
    <!-- Generator: Sketch 52.1 (67048) - http://www.bohemiancoding.com/sketch -->
    <title>hotel</title>
    <desc>Created with Sketch.</desc>
    <g id="景区电商" stroke="none" stroke-width="1" fill="none" fill-rule="evenodd">
        <g id="首页" transform="translate(-211.000000, -309.000000)" fill-rule="nonzero">
            <g id="Group-2" transform="translate(0.000000, 284.000000)">
                <g id="Group-8" transform="translate(211.000000, 25.000000)">
                    <circle id="Oval-Copy-6" fill="#EEEEEE" cx="24" cy="24" r="24"></circle>
                    <g id="bag" transform="translate(12.000000, 12.000000)">
                        <polygon id="Rectangle-path" fill="#FFFFFF" points="6.65444501 9.76738619 9.48368286 9.76738619 9.48368286 11.0331867 6.65444501 11.0331867"></polygon>
                        <rect id="Rectangle-path" fill="#FFFFFF" x="14.4715703" y="9.76738619" width="2.82923785" height="1.26580051"></rect>
                        <path d="M20.1935141,9.23570332 L20.1935141,11.0332481 L18.6300767,11.0332481 L18.6300767,9.10477749 C18.6300767,8.73974425 18.3325013,8.43811765 17.9634169,8.43811765 L13.8049105,8.43811765 C13.4398772,8.43811765 13.1382506,8.73569309 13.1382506,9.10477749 L13.1382506,11.0332481 L10.809023,11.0332481 L10.809023,9.10477749 C10.809023,8.73974425 10.5114476,8.43811765 10.1423632,8.43811765 L5.95605115,8.43811765 C5.5910179,8.43811765 5.2893913,8.73569309 5.2893913,9.10477749 L5.2893913,11.0332481 L3.72601535,11.0332481 L3.72601535,9.23570332 C3.75774936,4.87875192 7.45203069,1.3511202 11.9756317,1.3511202 C16.4992327,1.3511202 20.1935141,4.87875192 20.1935141,9.23570332 Z" id="Shape" fill="#FFFFFF"></path>
                        <polygon id="Rectangle-path" fill="#FFFFFF" points="6.65444501 9.76738619 9.48368286 9.76738619 9.48368286 11.0331867 6.65444501 11.0331867"></polygon>
                        <rect id="Rectangle-path" fill="#FFFFFF" x="14.4715703" y="9.76738619" width="2.82923785" height="1.26580051"></rect>
                        <rect id="Rectangle-path" fill="#FFFFFF" x="1.32932992" y="18.7153964" width="21.2886752" height="2.76178005"></rect>
                        <polygon id="Shape" fill="#C9AB5D" points="3.52763171 12.3625166 1.63089514 17.3860665 22.3203683 17.3860665 20.4236317 12.3625166"></polygon>
                        <path d="M23.9512634,18.0527263 C23.9512634,17.9852685 23.9512634,17.8860767 23.9195294,17.8186189 L21.5585064,11.596665 L21.5585064,9.23564194 C21.5585064,4.14463427 17.2690128,0.0217902813 12.0113555,0.0217902813 C6.72190281,0.0217902813 2.43240921,4.14856266 2.43240921,9.23564194 L2.43240921,11.596665 L0.0317340153,17.8186189 C0,17.8860767 0,17.9852685 0,18.0527263 L0,18.0527263 L0,22.1437749 C0,22.5088082 0.297575448,22.8104348 0.666659847,22.8104348 L2.13090537,22.8104348 L2.13090537,23.3064552 C2.13090537,23.6714885 2.42848082,23.9731151 2.79756522,23.9731151 C3.16664962,23.9731151 3.46422506,23.6755396 3.46422506,23.3064552 L3.46422506,22.8065064 L20.5308645,22.8065064 L20.5308645,23.3064552 C20.5308645,23.6714885 20.8284399,23.9731151 21.1975243,23.9731151 C21.5625575,23.9731151 21.8641841,23.6755396 21.8641841,23.3064552 L21.8641841,22.8065064 L23.3284297,22.8065064 C23.6934629,22.8065064 23.9950895,22.5089309 23.9950895,22.1398465 L23.9512634,18.0527263 L23.9512634,18.0527263 Z M11.9756317,1.3511202 C16.4992327,1.3511202 20.1935141,4.87875192 20.1935141,9.23570332 L20.1935141,11.0332481 L18.6300767,11.0332481 L18.6300767,9.10477749 C18.6300767,8.73974425 18.3325013,8.43811765 17.9634169,8.43811765 L13.8049105,8.43811765 C13.4398772,8.43811765 13.1382506,8.73569309 13.1382506,9.10477749 L13.1382506,11.0332481 L10.809023,11.0332481 L10.809023,9.10477749 C10.809023,8.73974425 10.5114476,8.43811765 10.1423632,8.43811765 L5.95605115,8.43811765 C5.5910179,8.43811765 5.2893913,8.73569309 5.2893913,9.10477749 L5.2893913,11.0332481 L3.72601535,11.0332481 L3.72601535,9.23570332 C3.75774936,4.87875192 7.45203069,1.3511202 11.9756317,1.3511202 Z M17.3325422,11.0332481 L14.4715703,11.0332481 L14.4715703,9.76744757 L17.3008082,9.76744757 L17.3008082,11.0332481 L17.3325422,11.0332481 Z M9.47969309,11.0332481 L6.65045524,11.0332481 L6.65045524,9.76744757 L9.47969309,9.76744757 L9.47969309,11.0332481 Z M3.52763171,12.3625166 L20.3918977,12.3625166 L22.2886343,17.3860665 L1.63089514,17.3860665 L3.52763171,12.3625166 Z M22.6219335,21.4771765 L1.32932992,21.4771765 L1.32932992,18.7153964 L22.6180051,18.7153964 L22.6180051,21.4771765 L22.6219335,21.4771765 Z" id="Shape" fill="#333333"></path>
                    </g>
                </g>
            </g>
        </g>
    </g>
</svg>