<?xml version="1.0" encoding="UTF-8"?>
<svg width="28px" height="28px" viewBox="0 0 28 28" version="1.1" xmlns="http://www.w3.org/2000/svg" xmlns:xlink="http://www.w3.org/1999/xlink">
    <!-- Generator: Sketch 52.1 (67048) - http://www.bohemiancoding.com/sketch -->
    <title>dianhua</title>
    <desc>Created with Sketch.</desc>
    <g id="酒店" stroke="none" stroke-width="1" fill="none" fill-rule="evenodd">
        <g id="待付款订单" transform="translate(-332.000000, -173.000000)">
            <g id="Group-3" transform="translate(0.000000, 164.000000)">
                <g id="Group" transform="translate(289.000000, 9.000000)">
                    <g id="Group-5" transform="translate(43.000000, 0.000000)">
                        <circle id="Oval" stroke="#CCCCCC" stroke-width="0.5" fill-rule="nonzero" cx="14" cy="14" r="13.75"></circle>
                        <path d="M17.8124211,15.6158947 C16.6028947,15.5967368 15.5742632,16.3755789 15.2154211,17.4605789 C15.1093158,17.7814737 14.7246842,17.9111579 14.4336316,17.7391053 C12.6862105,16.7064211 11.2316842,15.2345789 10.2100526,13.4816316 C10.2048947,13.4731579 10.2111579,13.4617368 10.2214737,13.4617368 C11.5945789,13.4617368 12.8608421,12.6132632 13.2863684,11.3079474 C14.0158421,9.07126316 12.362,7 10.2306842,7 C9.64378947,7 9.09447368,7.15621053 8.62068421,7.43105263 C7.71068421,7.95863158 7.08068421,8.90621053 7.00515789,10.01 C7,10.08 7,10.1555263 7,10.2310526 C7,10.3441579 7.00515789,10.4517368 7.01584211,10.5593158 C7.19378947,16.3531053 11.9320526,21 17.7689474,21 C17.8389474,21 17.9037895,21 17.9737895,20.9948421 C18.9913684,20.9141579 19.8527368,20.2731053 20.2406842,19.3793158 C20.3873158,19.0352105 20.4691053,18.6557368 20.461,18.2530526 C20.4322632,16.8353684 19.2301053,15.638 17.8124211,15.6158947 L17.8124211,15.6158947 Z" id="shop_service" fill="#666666"></path>
                    </g>
                </g>
            </g>
        </g>
    </g>
</svg>