<?xml version="1.0" encoding="UTF-8"?>
<svg width="48px" height="48px" viewBox="0 0 48 48" version="1.1" xmlns="http://www.w3.org/2000/svg" xmlns:xlink="http://www.w3.org/1999/xlink">
    <!-- Generator: Sketch 52.1 (67048) - http://www.bohemiancoding.com/sketch -->
    <title>store</title>
    <desc>Created with Sketch.</desc>
    <g id="景区电商" stroke="none" stroke-width="1" fill="none" fill-rule="evenodd">
        <g id="首页" transform="translate(-117.000000, -309.000000)" fill-rule="nonzero">
            <g id="Group-2" transform="translate(0.000000, 284.000000)">
                <g id="Group-7" transform="translate(117.000000, 25.000000)">
                    <circle id="Oval-Copy-5" fill="#EEEEEE" cx="24" cy="24" r="24"></circle>
                    <g id="bag-1" transform="translate(12.000000, 11.000000)">
                        <path d="M23.5551151,22.7998721 C23.6253836,23.1801151 23.2781969,23.5273657 22.8606777,23.560422 L2.10274936,23.560422 C1.65223785,23.560422 1.37525575,23.180179 1.40831202,22.7998721 L3.41713555,7.62199488 C3.45019182,7.27480818 3.76432225,7.03094629 4.11157289,7.03094629 L7.57538363,7.03094629 L7.57538363,8.90338875 C7.57538363,9.28363171 7.88951407,9.59782609 8.26982097,9.59782609 C8.65006394,9.59782609 8.96425831,9.28785166 8.96425831,8.90338875 L8.96425831,7.03094629 L15.9992967,7.03094629 L15.9992967,8.90338875 C15.9992967,9.28363171 16.3092711,9.59782609 16.693734,9.59782609 C17.073977,9.59782609 17.3881714,9.28785166 17.3881714,8.90338875 L17.3881714,7.03094629 L20.8519821,7.03094629 C21.1991688,7.03094629 21.5092072,7.27480818 21.5464194,7.62199488 L23.5551151,22.7998721 Z" id="Shape" fill="#FFFFFF"></path>
                        <path d="M22.0629795,22.1757033 L2.86745524,22.1757033 L3.62800512,16.2153453 L5.15326087,16.2153453 C5.53350384,16.2153453 5.84769821,15.9053708 5.84769821,15.5209079 C5.84769821,15.140665 5.53772379,14.8264706 5.15326087,14.8264706 L3.83881074,14.8264706 L4.04546036,13.1648338 L6.29814578,13.1648338 C6.67838875,13.1648338 6.99258312,12.8507033 6.99258312,12.4703964 C6.99258312,12.0900895 6.6826087,11.7759591 6.29814578,11.7759591 L4.25210997,11.7759591 L4.70262148,8.37832481 L7.5794757,8.37832481 L7.5794757,8.89910486 C7.5794757,9.27934783 7.89360614,9.5935422 8.27391304,9.5935422 C8.65415601,9.5935422 8.96835038,9.28356777 8.96835038,8.89910486 L8.96835038,8.37832481 L16.0033887,8.37832481 L16.0033887,8.89910486 C16.0033887,9.27934783 16.3133632,9.5935422 16.6978261,9.5935422 C17.0780691,9.5935422 17.3922634,9.28356777 17.3922634,8.89910486 L17.3922634,8.37832481 L20.2319054,8.37832481 L22.0629795,22.1757033 Z" id="Shape" fill="#C9AB5D"></path>
                        <path d="M12.4652174,11.780179 C11.1838875,11.780179 10.1794757,13.0284527 10.1794757,14.5867647 C10.1794757,16.1450767 11.2169437,17.3933504 12.4652174,17.3933504 C13.7465473,17.3933504 14.7509591,16.1450767 14.7509591,14.5867647 C14.7509591,13.0284527 13.7465473,11.780179 12.4652174,11.780179 Z" id="Shape" fill="#FFFFFF"></path>
                        <path d="M24.9398338,22.5932225 L22.9310102,7.41534527 C22.7904731,6.37372123 21.8893862,5.61317136 20.8519182,5.61317136 L17.3840153,5.61317136 L17.3840153,4.81540921 C17.3839514,2.14526854 15.2015345,0 12.4982737,0 C9.79501279,0 7.61259591,2.14936061 7.61259591,4.81540921 L7.61259591,5.61317136 L4.14878517,5.61317136 C3.10716113,5.61317136 2.21023018,6.37372123 2.06969309,7.41534527 L0.023657289,22.5932225 C-0.149936061,23.7381714 0.751150895,24.9492967 2.10274936,24.9492967 L22.8607417,24.9492967 C24.0056905,24.9492327 25.0431586,24.0481458 24.9398338,22.5932225 Z M8.96419437,4.81540921 C8.96419437,2.90991049 10.5225064,1.38465473 12.4652174,1.38465473 C14.4037724,1.38465473 15.9662404,2.90991049 15.9662404,4.81540921 L15.9662404,5.61317136 L8.96419437,5.61317136 L8.96419437,4.81540921 Z M22.8607417,23.5645141 L2.10274936,23.5645141 C1.65223785,23.5645141 1.37525575,23.1842711 1.40831202,22.8039642 L3.41713555,7.62608696 C3.45019182,7.27890026 3.76432225,7.03503836 4.11157289,7.03503836 L7.57538363,7.03503836 L7.57538363,8.90748082 C7.57538363,9.28772379 7.88535806,9.60191816 8.26982097,9.60191816 C8.65421995,9.60191816 8.96425831,9.29194373 8.96425831,8.90748082 L8.96425831,7.03503836 L15.9992967,7.03503836 L15.9992967,8.90748082 C15.9992967,9.28772379 16.3092711,9.60191816 16.693734,9.60191816 C17.078133,9.60191816 17.3881714,9.29194373 17.3881714,8.90748082 L17.3881714,7.03503836 L20.8519821,7.03503836 C21.1991688,7.03503836 21.5092072,7.27890026 21.5464194,7.62608696 L23.555243,22.8039642 C23.6253836,23.1842711 23.2781969,23.5273657 22.8607417,23.5645141 Z" id="Shape" fill="#333333"></path>
                        <path d="M12.4652174,18.7450128 C14.5112532,18.7450128 16.1398338,16.8725703 16.1398338,14.5537084 C16.1398338,12.2348465 14.4740409,10.3624041 12.4652174,10.3624041 C10.4191816,10.3624041 8.79060102,12.2348465 8.79060102,14.5536445 C8.79060102,16.8724425 10.4563939,18.7450128 12.4652174,18.7450128 Z M12.4652174,11.780179 C13.7465473,11.780179 14.7509591,13.0284527 14.7509591,14.5867647 C14.7509591,16.1450767 13.713491,17.3933504 12.4652174,17.3933504 C11.1838875,17.3933504 10.1794757,16.1450767 10.1794757,14.5867647 C10.1794757,13.0284527 11.2169437,11.780179 12.4652174,11.780179 Z" id="Shape" fill="#333333"></path>
                        <path d="M16.553133,20.2371483 L8.37730179,20.2371483 C7.99705882,20.2371483 7.68286445,20.5471228 7.68286445,20.9315857 C7.68286445,21.3118926 7.99283887,21.626023 8.37730179,21.626023 L16.5201407,21.626023 C16.9003836,21.626023 17.214578,21.3160486 17.214578,20.9315857 C17.214578,20.5471228 16.9334399,20.2371483 16.553133,20.2371483 Z" id="Shape" fill="#333333"></path>
                    </g>
                </g>
            </g>
        </g>
    </g>
</svg>