<?xml version="1.0" encoding="UTF-8"?>
<svg width="48px" height="48px" viewBox="0 0 48 48" version="1.1" xmlns="http://www.w3.org/2000/svg" xmlns:xlink="http://www.w3.org/1999/xlink">
    <!-- Generator: Sketch 52.1 (67048) - http://www.bohemiancoding.com/sketch -->
    <title>tickets</title>
    <desc>Created with Sketch.</desc>
    <g id="景区电商" stroke="none" stroke-width="1" fill="none" fill-rule="evenodd">
        <g id="首页" transform="translate(-23.000000, -309.000000)" fill-rule="nonzero">
            <g id="Group-2" transform="translate(0.000000, 284.000000)">
                <g id="Group-6" transform="translate(23.000000, 25.000000)">
                    <circle id="Oval" fill="#EEEEEE" cx="24" cy="24" r="24"></circle>
                    <g id="poker" transform="translate(14.000000, 12.000000)">
                        <path d="M14.2056675,1.33068031 L1.99592839,1.33068031 C1.63089514,1.33068031 1.32926854,1.62825575 1.32926854,1.99734015 L1.32926854,21.9567468 C1.32926854,22.3217801 1.62684399,22.6234066 1.99592839,22.6234066 L14.2056675,22.6234066 C14.5707008,22.6234066 14.8723274,22.3258312 14.8723274,21.9567468 L14.8723274,1.99734015 C14.8683376,1.63224552 14.5707621,1.33068031 14.2056675,1.33068031 Z" id="Shape" fill="#FFFFFF"></path>
                        <path d="M22.2886343,5.22334527 L16.2015959,2.69567263 L16.2015959,19.1631714 L22.5901995,5.98919693 C22.6893913,5.6915601 22.6219335,5.35826087 22.2886343,5.22334527 Z" id="Shape" fill="#C9AB5D"></path>
                        <path d="M22.8203785,3.99326854 L15.9992839,1.16403069 C15.6659847,0.465636829 14.9993248,0.00141176471 14.2017391,0.00141176471 L1.99592839,0.00141176471 C0.896777494,0.00135038363 0,0.898189258 0,1.99734015 L0,21.9567468 C0,23.0558977 0.896777494,23.9526752 1.99592839,23.9526752 L14.2056675,23.9526752 C15.2373606,23.9526752 16.0666803,23.1868235 16.2015959,22.1908542 C16.2690537,22.0916624 16.3365115,22.0242046 16.3682455,21.9250128 L23.7885422,6.55666496 C24.2171049,5.4891867 23.7846138,4.42575959 22.8203785,3.99326854 Z M16.2016573,2.69567263 L22.2886957,5.22334527 C22.6219949,5.38999488 22.6894527,5.68763171 22.5862711,5.98919693 L16.1976675,19.1631714 L16.1976675,2.69567263 L16.2016573,2.69567263 Z M14.8683376,21.9566854 C14.8683376,22.3217187 14.5707621,22.6233453 14.2016777,22.6233453 L1.99592839,22.6233453 C1.63089514,22.6233453 1.32926854,22.3257698 1.32926854,21.9566854 L1.32926854,1.99734015 C1.32926854,1.63230691 1.62684399,1.33068031 1.99592839,1.33068031 L14.2056675,1.33068031 C14.5707008,1.33068031 14.8723274,1.62825575 14.8723274,1.99734015 L14.8723274,21.9567468 L14.8683376,21.9567468 L14.8683376,21.9566854 Z" id="Shape" fill="#333333"></path>
                        <polygon id="Rectangle-path" fill="#EEEEEE" points="2.66258824 2.66393862 13.5390691 2.66393862 13.5390691 21.2940153 2.66258824 21.2940153"></polygon>
                        <path d="M11.0788542,10.5802558 C11.0788542,9.85012788 10.4796522,9.28272123 9.78131969,9.28272123 C9.34882864,9.28272123 8.91627621,9.51682864 8.6821688,9.88192327 C8.41632737,10.2826803 7.81712532,10.2826803 7.55128389,9.88192327 C7.31717647,9.51689003 6.88462404,9.28272123 6.45213299,9.28272123 C5.72200512,9.28272123 5.15459847,9.88192327 5.15459847,10.5802558 C5.15459847,11.8460563 7.05133504,13.6396113 8.11476215,14.4729207 C9.38050128,13.4055038 11.0788542,11.6436829 11.0788542,10.5802558 Z" id="Shape" fill="#FFFFFF"></path>
                        <path d="M9.74559591,7.9533913 C9.14639386,7.9533913 8.5472532,8.15177494 8.08296675,8.55259335 C7.61868031,8.1875601 7.05127366,7.9533913 6.4203376,7.9533913 C4.95609207,7.9533913 3.79347315,9.15173402 3.79347315,10.5802558 C3.79347315,12.9769412 7.28538107,15.5720716 7.68613811,15.8697084 C7.88452174,16.0363581 8.25354476,16.0363581 8.48372379,15.8697084 C8.88448082,15.572133 12.3763887,12.8103529 12.3763887,10.6119898 C12.4081228,9.14780563 11.2097801,7.9533913 9.74559591,7.9533913 Z M5.12280307,10.5802558 C5.12280307,9.85012788 5.72200512,9.28272123 6.4203376,9.28272123 C6.85282864,9.28272123 7.28538107,9.51682864 7.51948849,9.88192327 C7.78532992,10.2826803 8.38453197,10.2826803 8.6503734,9.88192327 C8.88448082,9.51689003 9.31703325,9.28272123 9.7495243,9.28272123 C10.4796522,9.28272123 11.0470588,9.88192327 11.0470588,10.5802558 C11.0470588,11.6436829 9.34870588,13.4094936 8.08689514,14.4729207 C7.01953964,13.6396113 5.12280307,11.8420665 5.12280307,10.5802558 Z" id="Shape" fill="#333333"></path>
                        <path d="M4.22596419,4.6242046 L4.22596419,3.4615243 C4.22596419,3.09649105 3.92838875,2.79486445 3.55930435,2.79486445 C3.19021995,2.79486445 2.8926445,3.0924399 2.8926445,3.4615243 L2.8926445,4.62414322 C2.8926445,4.98917647 3.19021995,5.29080307 3.55930435,5.29080307 C3.92838875,5.29080307 4.22596419,4.98923785 4.22596419,4.6242046 Z" id="Shape" fill="#333333"></path>
                        <path d="M12.6422916,18.6632225 C12.2772583,18.6632225 11.9756317,18.960798 11.9756317,19.3298824 L11.9756317,20.4925013 C11.9756317,20.8575345 12.2732072,21.1591611 12.6422916,21.1591611 C13.0073248,21.1591611 13.3089514,20.8615857 13.3089514,20.4925013 L13.3089514,19.3298824 C13.3049616,18.9290639 13.0073248,18.6632225 12.6422916,18.6632225 Z" id="Shape" fill="#333333"></path>
                    </g>
                </g>
            </g>
        </g>
    </g>
</svg>