<?xml version="1.0" encoding="UTF-8"?>
<svg width="48px" height="48px" viewBox="0 0 48 48" version="1.1" xmlns="http://www.w3.org/2000/svg" xmlns:xlink="http://www.w3.org/1999/xlink">
    <!-- Generator: Sketch 52.1 (67048) - http://www.bohemiancoding.com/sketch -->
    <title>all</title>
    <desc>Created with Sketch.</desc>
    <g id="景区电商" stroke="none" stroke-width="1" fill="none" fill-rule="evenodd">
        <g id="特产商城" transform="translate(-305.000000, -271.000000)" fill-rule="nonzero">
            <g id="Group-2" transform="translate(0.000000, 63.000000)">
                <g id="Group-7" transform="translate(305.000000, 208.000000)">
                    <circle id="Oval-Copy-7" fill="#EEEEEE" cx="24" cy="24" r="24"></circle>
                    <path d="M34.4603789,20.3929694 L30.2197706,24.6353185 C29.4988436,25.3551683 28.3311321,25.3551683 27.6102052,24.6353185 L23.3696183,20.3929694 C22.6501522,19.6715398 22.6501522,18.5039524 23.3696183,17.7825228 L27.6102052,13.5397009 C28.331235,12.8200997 29.4987408,12.8200997 30.2197706,13.5397009 L34.4604004,17.7825228 C35.1798665,18.5039524 35.1798665,19.6715398 34.4604004,20.3929694 L34.4603789,20.3929694 Z M33.2869298,18.5067383 L29.5039153,14.7224128 C29.1825969,14.4011115 28.6617144,14.4009191 28.3401588,14.721983 L24.5597662,18.5045032 C24.2388205,18.8260382 24.2388205,19.3467247 24.5597662,19.6682597 L28.3427592,23.453058 C28.6635176,23.7737948 29.1857789,23.7742462 29.5065157,23.4534878 L33.2873381,19.6709246 C33.6077447,19.3489214 33.6075526,18.8284833 33.2869083,18.5067168 L33.2869298,18.5067383 Z M20.841892,35.0097724 L14.8453116,35.0097724 C13.8264343,35.0083154 13.0009706,34.1824575 13,33.1635797 L13,27.163926 C13.0012192,26.1452244 13.8266103,25.3196411 14.8453116,25.3181846 L20.841892,25.3181846 C21.8605933,25.3196411 22.6859843,26.1452244 22.6872036,27.163926 L22.6872036,33.1635797 C22.686233,34.1824575 21.8607693,35.0083154 20.841892,35.0097724 Z M20.841892,23.93354 L14.8453116,23.93354 C13.8264343,23.932083 13.0009706,23.1062252 13,22.0873473 L13,16.0877151 C13.0012074,15.0690051 13.8266019,14.2434087 14.8453116,14.2419522 L20.841892,14.2419522 C21.8606017,14.2434087 22.6859962,15.0690051 22.6872036,16.0877151 L22.6872036,22.0873688 C22.686233,23.1062466 21.8607693,23.9321045 20.841892,23.9335615 L20.841892,23.93354 Z M25.9167084,25.3181846 L31.9132888,25.3181846 C32.9319901,25.3196411 33.7573812,26.1452244 33.7586004,27.163926 L33.7586004,33.1635797 C33.7576298,34.1824575 32.9321661,35.0083154 31.9132888,35.0097724 L25.9167084,35.0097724 C24.8978311,35.0083154 24.0723674,34.1824575 24.0713968,33.1635797 L24.0713968,27.163926 C24.0726161,26.1452244 24.8980071,25.3196411 25.9167084,25.3181846 Z" id="Shape" fill="#999999"></path>
                </g>
            </g>
        </g>
    </g>
</svg>