<?xml version="1.0" encoding="UTF-8"?>
<svg width="36px" height="36px" viewBox="0 0 36 36" version="1.1" xmlns="http://www.w3.org/2000/svg" xmlns:xlink="http://www.w3.org/1999/xlink">
    <!-- Generator: Sketch 52.1 (67048) - http://www.bohemiancoding.com/sketch -->
    <title>logistics</title>
    <desc>Created with Sketch.</desc>
    <defs>
        <linearGradient x1="87.0931115%" y1="78.4273601%" x2="13.4036383%" y2="24.7766611%" id="linearGradient-1">
            <stop stop-color="#4D6AD9" offset="0%"></stop>
            <stop stop-color="#628DD6" offset="100%"></stop>
        </linearGradient>
    </defs>
    <g id="景区电商" stroke="none" stroke-width="1" fill="none" fill-rule="evenodd">
        <g id="待发货订单" transform="translate(-15.000000, -251.000000)">
            <g id="Group-3-Copy-3" transform="translate(0.000000, 224.000000)">
                <g id="Group-5" transform="translate(15.000000, 27.000000)">
                    <circle id="Oval" fill="url(#linearGradient-1)" cx="18" cy="18" r="18"></circle>
                    <path d="M23.9856099,16.8563512 L26.9519295,16.8563512 L26.9519295,17.4904956 L23.9856099,17.4904956 L23.9856099,22.2033554 L22.4469961,22.2033554 C22.1397713,20.9426926 21.0104158,20.0555095 19.7128575,20.0555095 C18.4152991,20.0555095 17.2859436,20.9426926 16.9787188,22.2033554 L13.9906322,22.2033554 C13.6834075,20.9426926 12.5540519,20.0555095 11.2564936,20.0555095 C9.95893522,20.0555095 8.82957972,20.9426926 8.52235495,22.2033554 L7.00239857,22.2033554 L7.00239857,18.8491691 L9.77053515,13.8309498 L12.6576645,13.8309498 L12.6576645,12.1242121 C12.6576645,11.5468692 12.9972292,11.1136029 13.5490737,11.0033169 L22.457154,11.0033169 C23.0854939,11.0033169 23.6460452,11.3437108 23.9856099,11.9034329 L23.9856099,14.0701792 L22.852069,14.0701792 C22.7242392,14.0701792 22.601645,14.1209594 22.5112557,14.2113487 C22.4208663,14.301738 22.3700861,14.4243323 22.3700861,14.5521621 C22.3700861,14.6799919 22.4208663,14.8025861 22.5112557,14.8929754 C22.601645,14.9833648 22.7242392,15.034145 22.852069,15.034145 L23.9856099,15.034145 L23.9856099,16.8563512 Z M24.5575629,18.2867521 L29.9990979,18.2867521 L29.9990979,18.9208964 L24.5575629,18.9208964 L24.5575629,18.2867521 Z M13.0057287,22.8911916 C13.0061141,23.3597441 12.8201531,23.8092166 12.4888363,24.1405333 C12.1575196,24.4718501 11.7080471,24.6578111 11.2394946,24.6574257 C10.2640305,24.6574257 9.47326054,23.8666558 9.47326055,22.8911916 C9.47326055,21.9157275 10.2640305,21.1249576 11.2394946,21.1249576 C12.2149588,21.1249576 13.0057287,21.9157275 13.0057287,22.8911916 Z M21.4714213,22.8741927 C21.4719171,23.3405247 21.2868869,23.7878995 20.9571402,24.1176462 C20.6273935,24.4473929 20.1800187,24.632423 19.7136867,24.6319273 C18.7429167,24.6319273 17.9559521,23.8449627 17.9559521,22.8741927 C17.9559521,21.9034227 18.7429167,21.1164581 19.7136867,21.1164581 C20.6844567,21.1164581 21.4714213,21.9034227 21.4714213,22.8741927 Z M12.5471712,18.6963857 L12.5471712,15.1896233 L10.5261599,15.1896233 L8.4968565,18.6963857 L12.5471712,18.6963857 Z" id="Shape" fill="#FFFFFF"></path>
                </g>
            </g>
        </g>
    </g>
</svg>