<?xml version="1.0" encoding="UTF-8"?>
<svg width="90px" height="90px" viewBox="0 0 90 90" version="1.1" xmlns="http://www.w3.org/2000/svg" xmlns:xlink="http://www.w3.org/1999/xlink">
    <!-- Generator: Sketch 52.1 (67048) - http://www.bohemiancoding.com/sketch -->
    <title>logo</title>
    <desc>Created with Sketch.</desc>
    <g id="景区电商" stroke="none" stroke-width="1" fill="none" fill-rule="evenodd">
        <g id="店铺主页" transform="translate(-15.000000, -98.000000)">
            <g id="Group-6" transform="translate(15.000000, 98.000000)">
                <rect id="Rectangle" fill="#C9AB5D" fill-rule="nonzero" x="0" y="0" width="90" height="90" rx="45"></rect>
                <path d="M54.3330755,49.5670919 C54.3147054,49.6650399 54.2878097,49.7612009 54.2526944,49.8544811 C53.3842966,51.8044931 52.2134391,53.6056709 50.7832245,55.1917083 C49.7085493,56.3743916 48.4741591,57.4019375 47.1156059,58.2447515 C45.2584675,59.3911882 43.2051279,60.1851946 41.058988,60.5867865 C39.2512527,60.9364304 37.4045608,61.041257 35.5687761,60.8984357 C32.3535346,60.6465037 29.3065324,59.8141948 26.48198,58.2354207 C25.1977527,57.5188139 24.0051224,56.6715758 23.0442886,55.5518778 C21.7269526,54.0122486 20.7992978,52.1792784 20.3393732,50.207186 C19.7916605,47.9416637 19.93186,45.694803 20.5805163,43.4703363 C21.2796444,41.0648518 22.4760134,38.9168978 23.9789519,36.9275676 C25.3035167,35.1946477 26.8573788,33.649065 28.5980576,32.3330735 C31.4179027,30.1931533 34.6084963,28.5901179 38.0101165,27.6042156 C39.5882649,27.132781 41.1972496,26.7711226 42.8255016,26.5218409 C43.8966257,26.3557523 44.9714884,26.2176562 46.0538284,26.1486082 C46.7417406,26.1038203 47.4315221,26.0627647 48.1213035,26.0403707 C48.811085,26.0179768 49.555077,25.9881181 50.271029,26.0049136 C51.2655107,26.0310399 52.2599924,26.0814263 53.2526048,26.1486082 C54.0732391,26.2045931 54.8957428,26.2811058 55.7126384,26.3800124 C56.8772288,26.5199747 58.0343419,26.7047249 59.1821084,26.9585231 C59.3223079,26.9902479 59.3223079,26.992114 59.4438141,27.1358086 C59.380257,27.311228 59.2176256,27.3410866 59.0699488,27.3653467 C58.6960835,27.4213316 58.3222182,27.4679857 57.9483529,27.5202382 C57.0361216,27.6508697 56.1201516,27.7609733 55.2116589,27.9214634 C53.9423862,28.145403 52.6749829,28.3824057 51.4169262,28.6679287 C48.5232571,29.2780882 45.6987065,30.1784142 42.9862637,31.3552039 C41.1317868,32.1530298 39.3811407,33.1725642 37.7727121,34.3914517 C36.2521079,35.526147 34.9606744,36.9382411 33.9667633,38.5529959 C33.2558709,39.6980566 32.7834924,40.9744305 32.5778537,42.3058504 C32.321756,44.1104303 32.5086887,45.8627577 33.3573629,47.5049815 C33.9944458,48.7109949 34.996685,49.6854144 36.2211711,50.2892972 C37.2954833,50.8301602 38.4509214,51.1925934 39.6420386,51.3623411 C40.982068,51.5655677 42.339239,51.6330926 43.6928691,51.5638867 C44.738292,51.5188583 45.7808073,51.4216966 46.8165136,51.2727652 C48.7124227,51.0103119 50.5866954,50.6105199 52.4244931,50.0765545 C52.8806088,49.9440569 53.3255085,49.7779684 53.7760162,49.6324077 C53.9482084,49.5458407 54.1454773,49.5227107 54.3330755,49.5670919 Z M47.5006871,63.4980013 C46.041582,63.5223495 44.587308,63.3241175 43.1881509,62.9101598 C43.0757574,62.8797789 42.9672442,62.8365723 42.8647574,62.7813946 C42.5712732,62.6097075 42.5656652,62.3857679 42.8535415,62.2103486 C42.9514677,62.1465348 43.0595645,62.0998352 43.1731963,62.0722525 C43.3983477,62.011831 43.6286459,61.9724716 43.8611085,61.9546842 C44.9272022,61.8968734 45.9817296,61.7050096 46.9997076,61.3836382 C49.3072166,60.6802192 51.5082447,59.6669483 53.5423504,58.3716506 C55.7732211,56.9807347 57.8542288,55.3635223 59.752253,53.5457522 C60.6506889,52.7150423 61.3733748,51.7131161 61.8776772,50.5990803 C62.2117657,49.8894146 62.3467888,49.1025749 62.2683665,48.322361 C62.1431216,47.2847742 61.7075685,46.4207406 60.754212,45.8963487 C60.3550416,45.6899747 59.9182352,45.5662002 59.4699847,45.5324468 C58.547942,45.4665452 57.6212893,45.5497272 56.7258134,45.7787804 C55.727593,45.9952553 54.742458,46.2677152 53.734891,46.4692608 C51.3571077,46.9469986 48.9737164,47.4023425 46.5903251,47.853954 C46.0089646,47.9659238 45.4257347,48.0648305 44.8406355,48.1469416 C44.2812898,48.2463347 43.7068782,48.2214857 43.1582417,48.0741613 C42.5677756,47.9107859 42.0852924,47.4855429 41.8497131,46.9208723 C41.683334,46.5022319 41.575763,46.0626276 41.5300583,45.614558 C41.3431257,44.3455669 41.5468823,43.1138991 41.9319635,41.9102238 C42.5544492,39.9600831 43.5676242,38.2170865 44.7957717,36.5897921 C45.4846136,35.6492141 46.2545987,34.770631 47.0969126,33.9641003 C47.803518,33.3072108 48.5568566,32.7212355 49.4709573,32.3741291 C49.8630504,32.1936344 50.29185,32.1067417 50.723406,32.1203309 C51.0526762,32.1265883 51.3555961,32.3014065 51.5253471,32.5831394 C51.8155146,33.0086491 51.9633934,33.5148976 51.9478149,34.029416 C51.8973431,34.8057399 51.8599565,35.58393 51.7608822,36.3565217 C51.6416571,37.2714011 51.60163,38.194836 51.6412453,39.1165772 C51.6692852,39.696954 51.7141491,40.2773308 51.7945301,40.8521091 C51.842237,41.14306 51.9342768,41.4250058 52.0674518,41.6881503 C52.253829,42.1297077 52.713339,42.3919497 53.1890477,42.3282443 C53.82088,42.266661 54.4545817,42.1994791 55.0770674,42.0763123 C56.5949605,41.77586 58.1072457,41.4399506 59.6214001,41.1189705 C60.6551377,40.9006294 61.6944832,40.7158792 62.7450447,40.5964448 C63.6270981,40.4929992 64.5163868,40.4649047 65.403227,40.5124674 C66.3118792,40.5377678 67.2044368,40.7579837 68.0202841,41.1581599 C69.0110271,41.673221 69.5755637,42.507396 69.8241841,43.5729753 C69.9977512,44.3523309 70.0432083,45.154678 69.9587757,45.9486012 C69.7494111,48.1581386 68.9549473,50.1698627 67.8370901,52.0621523 C66.4088923,54.4551144 64.5185224,56.5408349 62.2758438,58.1980974 C59.0174474,60.6304438 55.2545482,62.3030601 51.2636414,63.0930438 C50.0267951,63.3580035 48.7656821,63.4937205 47.5006871,63.4980013 Z M62.1076044,29.68872 C62.3675626,29.7405333 62.627377,29.5990562 62.7244821,29.3528106 C62.7682982,29.2896568 62.8356182,29.246645 62.9114148,29.2333762 C63.1319953,29.1960529 63.3563145,29.1773913 63.576895,29.151265 C63.8568776,29.1143861 64.1398025,29.1932553 64.3601428,29.3696061 C64.5882006,29.5450255 64.8106505,29.7297756 65.1078734,29.6924524 C65.1676918,29.9873062 65.2219023,30.2523014 65.2779821,30.5228951 C65.2871852,30.6120782 65.3111913,30.6991106 65.3490165,30.7804256 C65.5882903,31.1536583 65.5938983,31.5791435 65.6275462,31.9971641 C65.654288,32.2281931 65.6661514,32.4606971 65.6630634,32.693243 C65.6519484,32.9248339 65.6219398,33.1551348 65.5733357,33.3818573 C65.5209946,33.6337893 65.4424828,33.8801229 65.3714484,34.1376534 L65.7957856,34.2888127 C65.7733536,34.4269088 65.661194,34.4660982 65.5882903,34.5351462 C65.4237896,34.6881716 65.4144429,34.7348257 65.5191252,34.9270405 C65.5263167,34.9434003 65.5350813,34.9590249 65.5452958,34.9736946 C65.8481267,35.320801 65.8200868,35.6809705 65.6088529,36.063534 C65.5294578,36.2324305 65.4668472,36.4086935 65.4219203,36.5897921 C65.3546245,36.79507 65.2761128,36.8678504 65.0686175,36.8193302 C64.7128333,36.7339751 64.3380642,36.8368446 64.0760052,37.09179 C63.9331444,37.2148517 63.7813098,37.3271314 63.6217588,37.4276994 C63.3374004,37.6643226 62.9166447,37.6346725 62.6684023,37.3605175 C62.5735531,37.2781963 62.4910787,37.1826627 62.4235206,37.0768607 C62.3089367,36.8907998 62.1125309,36.7702458 61.8945012,36.7521483 L61.7318698,36.7390851 C61.2963167,36.7073604 61.0271337,36.520744 60.9131047,36.0915265 C60.8352978,35.752911 60.7809586,35.4093451 60.7504733,35.0632705 C60.7168255,34.7702828 60.7056095,34.475429 60.6850469,34.1824414 C60.6700923,33.9510371 60.651399,33.7196329 60.6383138,33.4882286 C60.6112893,33.2316268 60.6000523,32.973612 60.6046659,32.715637 C60.6420524,32.1987097 60.6607457,31.6743178 60.9953551,31.2320371 C61.1635945,31.0118299 61.3131406,30.7785594 61.470164,30.5490213 C61.505234,30.508314 61.5324834,30.4614991 61.5505451,30.4109253 C61.5759916,30.1688914 61.7855309,29.9883062 62.0290927,29.9985032 L62.1076044,29.68872 Z M64.6779283,33.7849486 C64.5308632,33.7764789 64.3858156,33.8223108 64.2704151,33.9137138 C64.0509787,34.0103392 63.8873303,34.201168 63.8255154,34.4325073 L63.5339005,34.4325073 C63.3357519,33.9435725 63.1039554,33.7737516 62.6366238,33.812941 C62.7450447,33.9006507 62.8198178,33.9678326 62.9039375,34.0238175 C62.9646997,34.0567955 63.0270899,34.0866921 63.0908701,34.1133933 C63.15653,34.1343524 63.2093059,34.1836158 63.2346576,34.247611 C63.2600093,34.3116062 63.2552618,34.3835804 63.221723,34.4437042 C63.0086197,34.5332801 62.7207435,34.4175779 62.5842826,34.6881716 L62.2104173,34.6489822 C62.2104173,34.5071538 62.2122867,34.3522622 62.2104173,34.2440248 C62.208548,34.1357873 62.2216333,33.9939589 62.0758258,33.9920927 C61.9300184,33.9902265 61.9300184,34.132055 61.9300184,34.2365601 L61.9300184,34.6751085 L61.4477321,34.7086994 C61.5411984,35.0016871 61.7972962,34.783346 61.939365,34.9102451 L61.9711435,35.3189348 L61.5187665,35.3189348 C61.4832493,35.320801 61.4496014,35.3599904 61.4159536,35.3823844 C61.4379083,35.4251129 61.4655784,35.4646642 61.4982039,35.4999527 C61.5225052,35.5092835 61.567369,35.4999527 61.6028862,35.4999527 C61.9075864,35.4887557 62.2122867,35.4794249 62.5151176,35.4626294 C62.5756355,35.4521211 62.6342349,35.432621 62.6889649,35.4047784 L62.677749,35.3525258 L62.208548,35.2834777 L62.208548,34.8486617 L62.5824133,34.8225354 C62.655317,35.2368237 62.7020502,35.2816116 63.0964781,35.3450611 C63.1544272,35.3543919 63.2123763,35.3711874 63.2665868,35.3823844 C63.2738657,35.4143372 63.2788632,35.4467655 63.2815414,35.4794249 C63.2310696,36.0019506 63.5264232,36.2986706 63.9788002,36.4666253 C64.2328243,36.552676 64.4911364,36.6255537 64.7527014,36.6849664 C64.7994345,36.6980296 64.8573836,36.6663048 64.9097248,36.6551078 L64.9190714,36.5897921 C64.8386904,36.5673981 64.75644,36.5450042 64.6779283,36.5188779 C64.4330465,36.4367667 64.1844261,36.360254 63.943283,36.2650797 C63.8008855,36.2214844 63.6809517,36.1244958 63.6086736,35.994486 L64.1433009,35.3618566 C64.2518094,35.3555105 64.3598164,35.342422 64.4666944,35.3226672 C64.6835363,35.2722808 64.7583093,35.1304523 64.7433547,34.8430632 C64.7321388,34.5948635 64.664843,34.5164846 64.4349159,34.4698305 C64.3246256,34.4493027 64.2031194,34.4716967 64.1040451,34.3914517 C64.1395623,34.1525828 64.3264949,34.0648731 64.5134276,34.0051559 C64.6143712,33.9715649 64.7059682,33.949171 64.6779283,33.7849486 Z M63.8292541,34.6191236 C63.7974755,35.0110179 63.9526296,35.4103768 63.5357698,35.7276246 C63.4633984,35.3554014 63.45518,34.9735789 63.5114686,34.5985958 L63.8292541,34.6191236 Z M64.0853518,35.1621771 L64.0703972,34.6601792 C64.2143353,34.6303206 64.3620121,34.600462 64.4592171,34.7348257 C64.5351021,34.8415622 64.5351021,34.9845264 64.4592171,35.0912629 C64.3732281,35.229359 64.2311593,35.1752403 64.0853518,35.1621771 Z M63.2422856,34.6377852 C63.2553708,34.8188031 63.2665868,34.9811593 63.2740641,35.1565786 C63.1076941,35.1883034 62.9600173,35.1827049 62.8833749,35.0446088 C62.8358448,34.950467 62.8304125,34.8406491 62.8684203,34.7422904 C62.941324,34.6041943 63.0927394,34.6377852 63.2422856,34.6377852 Z M63.2329389,30.6143371 C63.2628481,30.647928 63.2927574,30.7001806 63.3095813,30.7001806 C63.496514,30.716976 63.5525938,30.8476075 63.5525938,30.9969005 C63.5675484,31.2600296 63.5525938,31.5250248 63.5525938,31.7769568 C63.0908701,31.9262499 63.0516143,31.9934318 63.1338646,32.4431771 L63.1450806,32.4972959 C63.1891828,32.7426408 63.3843822,32.9330128 63.6311055,32.9713014 C64.0093961,33.0510202 64.4006341,33.0465601 64.7770026,32.9582382 C64.8975166,32.9327465 65.0056843,32.8669022 65.0835722,32.7716219 C65.2293796,32.5570131 65.1714305,32.3069472 65.1359133,32.0680783 C65.1097427,31.881462 64.939634,31.8572018 64.8069118,31.7918861 C64.7919572,31.7844215 64.7826106,31.7657598 64.762048,31.745232 C64.7117479,31.4144066 64.7321338,31.0767001 64.8218664,30.7542993 L65.0873108,30.6329987 C64.6966216,30.5284935 63.4366955,30.5191627 63.2329389,30.6143371 Z M63.3637918,32.3144119 C63.3806157,32.0232904 63.3806157,32.0214242 63.6236282,31.9803686 C63.7638277,31.961707 63.9058965,31.9542423 64.0666585,31.9411792 L64.0666585,32.3144119 L63.3637918,32.3144119 Z M63.7750436,30.7244407 L64.5339902,30.7244407 L64.5115582,30.9969005 L63.8049528,30.9969005 L63.7750436,30.7244407 Z M63.3899624,32.4972959 L64.0703972,32.4972959 L64.0479653,32.8332053 C63.6404521,32.8910563 63.4871673,32.8164098 63.3899624,32.4972959 Z M64.3676201,31.95051 L64.8872929,32.0176919 L64.9172021,32.3685306 L64.3246256,32.3330735 L64.3676201,31.95051 Z M64.5134276,31.390661 L63.8311234,31.3887948 C63.7974755,31.1760522 63.7881289,31.1517921 63.9563683,31.1517921 L64.4891263,31.1517921 L64.5134276,31.390661 Z M64.3264949,32.4916974 L64.3208869,32.4972959 C64.5141482,32.4694529 64.7111483,32.483455 64.8985088,32.5383515 C64.7975652,32.8164098 64.6835363,32.8779932 64.3489268,32.8313391 L64.3264949,32.4916974 Z M64.5134276,31.7657598 L63.8142995,31.7638937 C63.7806516,31.6463254 63.7918675,31.5567495 63.9414137,31.5567495 C64.0909598,31.5567495 64.2704151,31.5530172 64.3919214,31.5567495 C64.5134276,31.5604819 64.5564221,31.6369946 64.5134276,31.7657598 Z M62.2421959,31.2320371 C62.2421959,31.4914338 62.2459345,31.7433659 62.2291106,31.9915656 C62.2235026,32.3125457 62.2066787,32.635392 62.2066787,32.9563721 C62.2147409,33.0305556 62.2304005,33.1037185 62.2534118,33.1747132 C62.4272592,33.1205944 62.4272592,33.0048923 62.4272592,32.9003872 C62.4496911,32.5159575 62.4609071,32.133394 62.483339,31.7489644 C62.4926856,31.5660804 62.5169869,31.3850625 62.5319415,31.230171 C62.7450447,31.1405951 62.9656252,31.2805574 63.0927394,31.0603501 C62.8353146,31.0302833 62.5758382,31.0215447 62.3169689,31.0342238 C62.0739565,31.047287 61.8178588,30.9801051 61.5692383,31.1014057 C61.7580403,31.2917544 62.0103994,31.1592568 62.2421959,31.2320371 Z M63.0086197,32.9843645 C63.0783844,32.8428079 63.0669755,32.6748108 62.9787105,32.54395 C62.8590736,32.2285684 62.769346,31.9187852 62.8945908,31.5810097 C62.9016093,31.5151686 62.8731551,31.4505447 62.8198178,31.4111888 C62.7282208,31.3608024 62.6758796,31.4410474 62.6422318,31.5175601 C62.6287858,31.5507737 62.621807,31.5862421 62.6216692,31.6220653 C62.5851262,32.0065109 62.654279,32.3936274 62.8216871,32.7417633 C62.8778638,32.8271616 62.9403483,32.908254 63.0086197,32.9843645 Z M61.8234667,31.3514716 C61.8055713,31.4285313 61.7974075,31.5075241 61.7991655,31.5866082 C61.8448916,31.9065658 61.7893393,32.232791 61.6402728,32.5196898 C61.5591141,32.6350595 61.5442282,32.7843745 61.6010169,32.9134503 C61.6482182,32.8841786 61.6910168,32.848364 61.7281311,32.807079 C61.953827,32.4389547 62.0650706,32.0122684 62.0477859,31.5810097 C62.0496553,31.4727722 61.9860982,31.379464 61.8234667,31.3514716 Z M63.0067504,30.6311325 L63.0030118,30.5826123 C62.9761521,30.5676889 62.9471485,30.5569883 62.9170227,30.5508875 C62.5431574,30.5284935 62.1692921,30.5098319 61.7954269,30.4893041 C61.7786029,30.4893041 61.7804722,30.4575793 61.7430857,30.4893041 C61.7056992,30.5210289 61.6477501,30.556486 61.6440114,30.5919431 C61.6402728,30.6274002 61.6888752,30.6759205 61.7262618,30.7039129 C61.7591758,30.7182106 61.7955174,30.7227456 61.8309441,30.716976 C62.1599455,30.7076452 62.4908163,30.6983144 62.8198178,30.6833851 C62.8839362,30.6732112 62.9466627,30.6556775 63.0067504,30.6311325 Z" id="Combined-Shape" fill="#FFFFFF"></path>
            </g>
        </g>
    </g>
</svg>