<?xml version="1.0" encoding="UTF-8"?>
<svg width="36px" height="36px" viewBox="0 0 36 36" version="1.1" xmlns="http://www.w3.org/2000/svg" xmlns:xlink="http://www.w3.org/1999/xlink">
    <!-- Generator: Sketch 52.1 (67048) - http://www.bohemiancoding.com/sketch -->
    <title>palce</title>
    <desc>Created with Sketch.</desc>
    <g id="景区电商" stroke="none" stroke-width="1" fill="none" fill-rule="evenodd">
        <g id="待付款订单" transform="translate(-15.000000, -251.000000)">
            <g id="Group" transform="translate(15.000000, 251.000000)">
                <circle id="Oval" fill="#C9AB5D" cx="18" cy="18" r="18"></circle>
                <path d="M14.8916968,15.9747292 C14.8918622,14.702753 15.6609175,13.5570708 16.8380706,13.0751641 C18.0152237,12.5932574 19.3669016,12.870747 20.2589827,13.7774525 C21.1510639,14.6841579 21.4065398,16.0401688 20.9055573,17.209331 C20.4045749,18.3784931 19.24654,19.128819 17.9747292,19.1083032 C16.2441041,19.1083032 14.8411552,17.7053544 14.8411552,15.9747292 M18.0252708,9 C14.1649732,8.99990009 11.0277719,12.1145315 11,15.9747292 C11,17.9458484 12.566787,20.7256317 14.0830325,22.9494585 C14.9590854,24.2635379 15.9025271,25.5270758 16.9133574,26.7400722 C17.1783996,27.0869796 17.5887195,27.2921396 18.0252708,27.2960289 C18.4356096,27.2894237 18.8228724,27.1050128 19.0866426,26.7906137 C20.0974729,25.5776173 21.0409146,24.3140794 21.9169675,23 C23.433213,20.7256317 25,17.9458484 25,16.0252707 C25.0000999,12.1649731 21.8854685,9.02777192 18.0252708,9" id="Shape" fill="#FFFFFF" fill-rule="nonzero"></path>
            </g>
        </g>
    </g>
</svg>