<?xml version="1.0" encoding="UTF-8"?>
<svg width="18px" height="18px" viewBox="0 0 18 18" version="1.1" xmlns="http://www.w3.org/2000/svg" xmlns:xlink="http://www.w3.org/1999/xlink">
    <!-- Generator: Sketch 52.1 (67048) - http://www.bohemiancoding.com/sketch -->
    <title>star_hig</title>
    <desc>Created with Sketch.</desc>
    <g id="酒店" stroke="none" stroke-width="1" fill="none" fill-rule="evenodd">
        <g id="评价" transform="translate(-234.000000, -84.000000)" fill="#C9AB5D" fill-rule="nonzero">
            <g id="订单价格" transform="translate(0.000000, 64.000000)">
                <g id="Group-11" transform="translate(234.000000, 20.000000)">
                    <g id="Group-10">
                        <path d="M9.48628324,14.8456299 L13.4898779,17.2948245 C14.2028186,17.7315836 15.0847221,17.0837591 14.895154,16.2603951 L13.8360456,11.6420333 C13.7577458,11.2972235 13.873135,10.9356956 14.1368819,10.7037326 L17.672738,7.59835451 C18.3032578,7.04456905 17.9673927,5.9955113 17.1370022,5.92236983 L12.476101,5.51695707 C12.1278727,5.48770048 11.824976,5.26409654 11.6889815,4.93809453 L9.86954037,0.583042054 C9.54397786,-0.194347351 8.45808266,-0.194347351 8.13458067,0.583042054 L6.31513956,4.93809453 C6.17914509,5.26409654 5.87624833,5.48770048 5.52802007,5.51695707 L0.862997789,5.92028007 C0.0326073379,5.99342155 -0.303257782,7.04247929 0.327262014,7.59626476 L3.86311813,10.7016429 C4.12686497,10.9336058 4.24225421,11.2951337 4.16395437,11.6399435 L3.10484595,16.2583053 C2.91527791,17.0816694 3.79718142,17.7294939 4.5101221,17.2927348 L8.51371676,14.8456299 C8.81249248,14.6638211 9.18750752,14.6638211 9.48628324,14.8456299 Z" id="store_star_hig"></path>
                    </g>
                </g>
            </g>
        </g>
    </g>
</svg>