<?xml version="1.0" encoding="UTF-8"?>
<svg width="18px" height="18px" viewBox="0 0 18 18" version="1.1" xmlns="http://www.w3.org/2000/svg" xmlns:xlink="http://www.w3.org/1999/xlink">
    <!-- Generator: Sketch 52.1 (67048) - http://www.bohemiancoding.com/sketch -->
    <title>star_nor</title>
    <desc>Created with Sketch.</desc>
    <g id="酒店" stroke="none" stroke-width="1" fill="none" fill-rule="evenodd">
        <g id="评价" transform="translate(-342.000000, -84.000000)" fill="#CCCCCC" fill-rule="nonzero">
            <g id="订单价格" transform="translate(0.000000, 64.000000)">
                <g id="Group-11" transform="translate(234.000000, 20.000000)">
                    <g id="Group-10">
                        <path d="M117.486283,14.8456299 L121.489878,17.2948245 C122.202819,17.7315836 123.084722,17.0837591 122.895154,16.2603951 L121.836046,11.6420333 C121.757746,11.2972235 121.873135,10.9356956 122.136882,10.7037326 L125.672738,7.59835451 C126.303258,7.04456905 125.967393,5.9955113 125.137002,5.92236983 L120.476101,5.51695707 C120.127873,5.48770048 119.824976,5.26409654 119.688981,4.93809453 L117.86954,0.583042054 C117.543978,-0.194347351 116.458083,-0.194347351 116.134581,0.583042054 L114.31514,4.93809453 C114.179145,5.26409654 113.876248,5.48770048 113.52802,5.51695707 L108.862998,5.92028007 C108.032607,5.99342155 107.696742,7.04247929 108.327262,7.59626476 L111.863118,10.7016429 C112.126865,10.9336058 112.242254,11.2951337 112.163954,11.6399435 L111.104846,16.2583053 C110.915278,17.0816694 111.797181,17.7294939 112.510122,17.2927348 L116.513717,14.8456299 C116.812492,14.6638211 117.187508,14.6638211 117.486283,14.8456299 Z" id="store_star_hig-copy-6"></path>
                    </g>
                </g>
            </g>
        </g>
    </g>
</svg>