<?xml version="1.0" encoding="UTF-8"?>
<svg width="70px" height="70px" viewBox="0 0 70 70" version="1.1" xmlns="http://www.w3.org/2000/svg" xmlns:xlink="http://www.w3.org/1999/xlink">
    <!-- Generator: Sketch 52.1 (67048) - http://www.bohemiancoding.com/sketch -->
    <title>evaluate</title>
    <desc>Created with Sketch.</desc>
    <g id="空页面" stroke="none" stroke-width="1" fill="none" fill-rule="evenodd">
        <g id="商品评论-空" transform="translate(-153.000000, -264.000000)">
            <g id="evaluate" transform="translate(153.000000, 264.000000)">
                <path d="M64.1666211,58.3333789 L59.5,66.5 L54.8333789,58.3333789 L54.8333789,3.5 C54.8333789,2.21662109 55.8833789,1.16662109 57.1667578,1.16662109 L61.8333789,1.16662109 C63.1167578,1.16662109 64.1667578,2.21662109 64.1667578,3.5 L64.1667578,58.3333789 L64.1666211,58.3333789 L64.1666211,58.3333789 Z" id="Shape" fill="#FFF4D7"></path>
                <path d="M59.5,68.8333789 L53.6666211,58.5667578 L53.6666211,3.5 C53.6666211,1.63337891 55.1832422,0 57.1666211,0 L61.8332422,0 C63.6998633,0 65.3332422,1.51662109 65.3332422,3.5 L65.3332422,58.6833789 L59.5,68.8333789 L59.5,68.8333789 Z M56,57.9833789 L59.5,64.05 L63,57.9833789 L63,3.5 C63,2.91662109 62.5333789,2.33337891 61.8333789,2.33337891 L57.1667578,2.33337891 C56.5833789,2.33337891 56.0001367,2.8 56.0001367,3.5 L56.0001367,57.9833789 L56,57.9833789 Z" id="Shape" fill="#BBBBBB"></path>
                <polygon id="Shape" fill="#FFFFFF" points="54.8333789 9.33337891 64.1666211 9.33337891 64.1666211 14 54.8333789 14"></polygon>
                <path d="M65.3333789,15.1666211 L53.6667578,15.1666211 L53.6667578,8.16662109 L65.3333789,8.16662109 L65.3333789,15.1666211 L65.3333789,15.1666211 Z M56,12.8333789 L63,12.8333789 L63,10.5 L56,10.5 L56,12.8333789 L56,12.8333789 Z" id="Shape" fill="#BBBBBB"></path>
                <rect id="Rectangle-path" fill="#BBBBBB" x="54.8333789" y="57.1666211" width="9.33337891" height="2.33337891"></rect>
                <path d="M59.5,70 C58.8,70 58.3333789,69.5333789 58.3333789,68.8333789 L58.3333789,66.5 C58.3333789,65.8 58.8,65.3333789 59.5,65.3333789 C60.2,65.3333789 60.6666211,65.8 60.6666211,66.5 L60.6666211,68.8333789 C60.6666211,69.5333789 60.2,70 59.5,70 L59.5,70 Z" id="Shape" fill="#BBBBBB"></path>
                <polygon id="Shape" fill="#FFFFFF" points="1.16662109 54.8333789 54.8333789 54.8333789 54.8333789 18.6666211 1.16662109 18.6666211"></polygon>
                <path d="M56,56 L0,56 L0,17.5 L56,17.5 L56,56 L56,56 Z M2.33337891,53.6666211 L53.6667578,53.6666211 L53.6667578,19.8333789 L2.33337891,19.8333789 L2.33337891,53.6666211 L2.33337891,53.6666211 Z" id="Shape" fill="#BBBBBB"></path>
                <polygon id="Shape" fill="#FFFFFF" points="64.1666211 54.8333789 68.8333789 54.8333789 68.8333789 18.6666211 64.1666211 18.6666211"></polygon>
                <path d="M70,56 L63,56 L63,17.5 L70,17.5 L70,56 L70,56 Z M65.3333789,53.6666211 L67.6667578,53.6666211 L67.6667578,19.8333789 L65.3333789,19.8333789 L65.3333789,53.6666211 L65.3333789,53.6666211 Z" id="Shape" fill="#BBBBBB"></path>
                <path d="M38.3332422,35.3332422 L30.1666211,35.3332422 C29.4666211,35.3332422 29,34.8666211 29,34.1666211 C29,33.4666211 29.4666211,33 30.1666211,33 L38.3332422,33 C39.0332422,33 39.4998633,33.4666211 39.4998633,34.1666211 C39.4998633,34.8666211 39.0332422,35.3332422 38.3332422,35.3332422 Z M44.3332422,30.3332422 L36.1666211,30.3332422 C35.4666211,30.3332422 35,29.8666211 35,29.1666211 C35,28.4666211 35.4666211,28 36.1666211,28 L44.3332422,28 C45.0332422,28 45.4998633,28.4666211 45.4998633,29.1666211 C45.4998633,29.8666211 45.0332422,30.3332422 44.3332422,30.3332422 Z M25.3332422,35.3332422 L17.1666211,35.3332422 C16.4666211,35.3332422 16,34.8666211 16,34.1666211 C16,33.4666211 16.4666211,33 17.1666211,33 L25.3332422,33 C26.0332422,33 26.4998633,33.4666211 26.4998633,34.1666211 C26.4998633,34.8666211 26.0332422,35.3332422 25.3332422,35.3332422 Z M29.3332422,30.3332422 L21.1666211,30.3332422 C20.4666211,30.3332422 20,29.8666211 20,29.1666211 C20,28.4666211 20.4666211,28 21.1666211,28 L29.3332422,28 C30.0332422,28 30.4998633,28.4666211 30.4998633,29.1666211 C30.4998633,29.8666211 30.0332422,30.3332422 29.3332422,30.3332422 Z M14.6666211,30.3332422 L11.1666211,30.3332422 C10.4666211,30.3332422 10,29.8666211 10,29.1666211 C10,28.4666211 10.4666211,28 11.1666211,28 L14.6666211,28 C15.3666211,28 15.8332422,28.4666211 15.8332422,29.1666211 C15.8332422,29.8666211 15.3666211,30.3332422 14.6666211,30.3332422 Z M32.1666211,44.9998633 L28.6666211,44.9998633 C27.9666211,44.9998633 27.5,44.5332422 27.5,43.8332422 C27.5,43.1332422 27.9666211,42.6666211 28.6666211,42.6666211 L32.1666211,42.6666211 C32.8666211,42.6666211 33.3332422,43.1332422 33.3332422,43.8332422 C33.3332422,44.5332422 32.8666211,44.9998633 32.1666211,44.9998633 Z M44.3332422,45.3332422 L36.1666211,45.3332422 C35.4666211,45.3332422 35,44.8666211 35,44.1666211 C35,43.4666211 35.4666211,43 36.1666211,43 L44.3332422,43 C45.0332422,43 45.4998633,43.4666211 45.4998633,44.1666211 C45.4998633,44.8666211 45.0332422,45.3332422 44.3332422,45.3332422 Z M44.3332422,40.3332422 L36.1666211,40.3332422 C35.4666211,40.3332422 35,39.8666211 35,39.1666211 C35,38.4666211 35.4666211,38 36.1666211,38 L44.3332422,38 C45.0332422,38 45.4998633,38.4666211 45.4998633,39.1666211 C45.4998633,39.8666211 45.0332422,40.3332422 44.3332422,40.3332422 Z M24,44.9998633 L15.8333789,44.9998633 C15.1333789,44.9998633 14.6667578,44.5332422 14.6667578,43.8332422 C14.6667578,43.1332422 15.1333789,42.6666211 15.8333789,42.6666211 L24,42.6666211 C24.7,42.6666211 25.1666211,43.1332422 25.1666211,43.8332422 C25.1666211,44.5332422 24.7,44.9998633 24,44.9998633 Z M29.3332422,40.3332422 L21.1666211,40.3332422 C20.4666211,40.3332422 20,39.8666211 20,39.1666211 C20,38.4666211 20.4666211,38 21.1666211,38 L29.3332422,38 C30.0332422,38 30.4998633,38.4666211 30.4998633,39.1666211 C30.4998633,39.8666211 30.0332422,40.3332422 29.3332422,40.3332422 Z M14.6666211,40.3332422 L11.1666211,40.3332422 C10.4666211,40.3332422 10,39.8666211 10,39.1666211 C10,38.4666211 10.4666211,38 11.1666211,38 L14.6666211,38 C15.3666211,38 15.8332422,38.4666211 15.8332422,39.1666211 C15.8332422,39.8666211 15.3666211,40.3332422 14.6666211,40.3332422 Z" id="Combined-Shape" fill="#BBBBBB"></path>
            </g>
        </g>
    </g>
</svg>