<?xml version="1.0" encoding="UTF-8"?>
<svg width="70px" height="59px" viewBox="0 0 70 59" version="1.1" xmlns="http://www.w3.org/2000/svg" xmlns:xlink="http://www.w3.org/1999/xlink">
    <!-- Generator: Sketch 52.1 (67048) - http://www.bohemiancoding.com/sketch -->
    <title>trolley</title>
    <desc>Created with Sketch.</desc>
    <g id="空页面" stroke="none" stroke-width="1" fill="none" fill-rule="evenodd">
        <g id="购物车-空" transform="translate(-153.000000, -264.000000)">
            <g id="trolley" transform="translate(153.000000, 264.000000)">
                <path d="M18.6666211,40.9244336 L12.6,10.5911914 L68.8333789,10.5911914 L68.8333789,36.2578125 C68.8333789,38.8244336 66.7333789,40.9244336 64.1667578,40.9244336 L18.6666211,40.9244336" id="Shape" fill="#FFFFFF"></path>
                <path d="M64.1666211,42.0911914 L17.7333789,42.0911914 L11.2,9.42443359 L70,9.42443359 L70,36.2578125 C70,39.5244336 67.4333789,42.0911914 64.1666211,42.0911914 L64.1666211,42.0911914 Z M19.6,39.7578125 L64.1666211,39.7578125 C66.0332422,39.7578125 67.6666211,38.2411914 67.6666211,36.2578125 L67.6666211,11.7578125 L14.1166211,11.7578125 L19.6,39.7578125 L19.6,39.7578125 Z" id="Shape" fill="#BBBBBB"></path>
                <path d="M32.6666211,51.4244336 C32.6666211,54.6910547 30.1,57.2578125 26.8332422,57.2578125 C23.5664844,57.2578125 21,54.6911914 21,51.4244336 C21,48.1576758 23.5666211,45.5910547 26.8333789,45.5910547 C30.1001367,45.5910547 32.6666211,48.1578125 32.6666211,51.4244336 L32.6666211,51.4244336 L32.6666211,51.4244336 Z" id="Shape" fill="#FFF4D7"></path>
                <path d="M26.8333789,58.4244336 C22.9833789,58.4244336 19.8333789,55.2744336 19.8333789,51.4244336 C19.8333789,47.5744336 22.9833789,44.4244336 26.8333789,44.4244336 C30.6833789,44.4244336 33.8333789,47.5744336 33.8333789,51.4244336 C33.8333789,55.2744336 30.6833789,58.4244336 26.8333789,58.4244336 L26.8333789,58.4244336 Z M26.8333789,46.7578125 C24.2667578,46.7578125 22.1667578,48.8578125 22.1667578,51.4244336 C22.1667578,53.9910547 24.2667578,56.0910547 26.8333789,56.0910547 C29.4,56.0910547 31.5,53.9910547 31.5,51.4244336 C31.5,48.8578125 29.4,46.7578125 26.8333789,46.7578125 L26.8333789,46.7578125 Z" id="Shape" fill="#BBBBBB"></path>
                <path d="M59.5,51.4244336 C59.5,54.6910547 56.9333789,57.2578125 53.6666211,57.2578125 C50.3998633,57.2578125 47.8332422,54.6911914 47.8332422,51.4244336 C47.8332422,48.1576758 50.3998633,45.5910547 53.6666211,45.5910547 C56.9333789,45.5910547 59.5,48.1578125 59.5,51.4244336 L59.5,51.4244336 L59.5,51.4244336 Z" id="Shape" fill="#FFF4D7"></path>
                <path d="M53.6666211,58.4244336 C49.8166211,58.4244336 46.6666211,55.2744336 46.6666211,51.4244336 C46.6666211,47.5744336 49.8166211,44.4244336 53.6666211,44.4244336 C57.5166211,44.4244336 60.6666211,47.5744336 60.6666211,51.4244336 C60.6666211,55.2744336 57.5166211,58.4244336 53.6666211,58.4244336 L53.6666211,58.4244336 Z M53.6666211,46.7578125 C51.1,46.7578125 49,48.8578125 49,51.4244336 C49,53.9910547 51.1,56.0910547 53.6666211,56.0910547 C56.2332422,56.0910547 58.3332422,53.9910547 58.3332422,51.4244336 C58.3332422,48.8578125 56.2333789,46.7578125 53.6666211,46.7578125 L53.6666211,46.7578125 Z" id="Shape" fill="#BBBBBB"></path>
                <path d="M65.3333789,51.4244336 L59.3833789,51.4244336 C58.6833789,51.4244336 58.2167578,50.9578125 58.2167578,50.2578125 C58.2167578,49.5578125 58.6833789,49.0911914 59.3833789,49.0911914 L65.3333789,49.0911914 C66.0333789,49.0911914 66.5,49.5578125 66.5,50.2578125 C66.5,50.9578125 66.0333789,51.4244336 65.3333789,51.4244336 L65.3333789,51.4244336 Z M47.95,51.4244336 L32.55,51.4244336 C31.85,51.4244336 31.3833789,50.9578125 31.3833789,50.2578125 C31.3833789,49.5578125 31.85,49.0911914 32.55,49.0911914 L47.95,49.0911914 C48.65,49.0911914 49.1166211,49.5578125 49.1166211,50.2578125 C49.1166211,50.9578125 48.65,51.4244336 47.95,51.4244336 L47.95,51.4244336 Z M12.6,11.7578125 C12.0166211,11.7578125 11.55,11.4078125 11.4333789,10.8244336 L10.7333789,5.92443359 L8.16662109,5.92443359 C7.46662109,5.92443359 7,5.4578125 7,4.7578125 C7,4.0578125 7.46662109,3.59119141 8.16662109,3.59119141 L12.6,3.59119141 L13.7666211,10.3578125 C13.8832422,11.0578125 13.4166211,11.6411914 12.8332422,11.7578125 C12.7166211,11.7578125 12.7166211,11.7578125 12.6,11.7578125 L12.6,11.7578125 Z" id="Shape" fill="#BBBBBB"></path>
                <path d="M8.16662109,4.7578125 C8.16662109,6.74119141 6.65,8.2578125 4.66662109,8.2578125 C2.68324219,8.2578125 1.16662109,6.74119141 1.16662109,4.7578125 C1.16662109,2.77443359 2.68324219,1.2578125 4.66662109,1.2578125 C6.65,1.2578125 8.16662109,2.77443359 8.16662109,4.7578125 L8.16662109,4.7578125 L8.16662109,4.7578125 Z" id="Shape" fill="#FFFFFF"></path>
                <path d="M4.66662109,9.42443359 C2.1,9.42443359 0,7.32443359 0,4.7578125 C0,2.19119141 2.1,0.0911914063 4.66662109,0.0911914063 C7.23324219,0.0911914063 9.33337891,2.19119141 9.33337891,4.7578125 C9.33337891,7.32443359 7.23337891,9.42443359 4.66662109,9.42443359 L4.66662109,9.42443359 Z M4.66662109,2.42443359 C3.38324219,2.42443359 2.33324219,3.47443359 2.33324219,4.7578125 C2.33324219,6.04119141 3.38324219,7.09119141 4.66662109,7.09119141 C5.95,7.09119141 7,6.04119141 7,4.7578125 C7,3.47443359 5.95,2.42443359 4.66662109,2.42443359 L4.66662109,2.42443359 Z" id="Shape" fill="#BBBBBB"></path>
                <path d="M21.1166211,51.4244336 L17.5,51.4244336 C15.8666211,51.4244336 14.2333789,50.7244336 13.1833789,49.4410547 C12.1333789,48.2744336 11.55,46.5244336 11.6667578,44.8910547 C12.0167578,42.0910547 14.5833789,39.7576758 17.7333789,39.7576758 C18.4333789,39.7576758 18.9,40.2242969 18.9,40.9242969 C18.9,41.6242969 18.4333789,42.090918 17.7333789,42.090918 C15.8667578,42.090918 14.2333789,43.490918 14,45.240918 C13.8833789,46.290918 14.2333789,47.2242969 14.9333789,47.9242969 C15.6333789,48.6242969 16.5667578,49.090918 17.5,49.090918 L21.1166211,49.090918 C21.8166211,49.090918 22.2832422,49.5575391 22.2832422,50.2575391 C22.2832422,50.9575391 21.8166211,51.4244336 21.1166211,51.4244336 L21.1166211,51.4244336 Z M31.5,42.0911914 C31.15,42.0911914 30.9166211,41.9745703 30.6833789,41.7411914 C30.2167578,41.2745703 30.2167578,40.5745703 30.6833789,40.1078125 L61.0167578,9.77443359 C61.4833789,9.3078125 62.1833789,9.3078125 62.6501367,9.77443359 C63.1167578,10.2410547 63.1167578,10.9410547 62.6501367,11.4078125 L32.3166211,41.7411914 C32.0833789,41.9744336 31.85,42.0911914 31.5,42.0911914 L31.5,42.0911914 Z M44.6833789,42.0911914 C44.3333789,42.0911914 44.1,41.9745703 43.8667578,41.7411914 C43.4001367,41.2745703 43.4001367,40.5745703 43.8667578,40.1078125 L68.0167578,15.9578125 C68.4833789,15.4911914 69.1833789,15.4911914 69.6501367,15.9578125 C70.1168945,16.4244336 70.1167578,17.1244336 69.6501367,17.5911914 L45.5,41.7411914 C45.2666211,41.9744336 45.0333789,42.0911914 44.6833789,42.0911914 L44.6833789,42.0911914 Z M57.8666211,42.0911914 C57.5166211,42.0911914 57.2832422,41.9745703 57.05,41.7411914 C56.5833789,41.2745703 56.5833789,40.5745703 57.05,40.1078125 L68.0166211,29.1411914 C68.4832422,28.6745703 69.1832422,28.6745703 69.65,29.1411914 C70.1166211,29.6078125 70.1166211,30.3078125 69.65,30.7745703 L58.6833789,41.7411914 C58.5666211,41.9744336 58.2166211,42.0911914 57.8666211,42.0911914 L57.8666211,42.0911914 Z M20.1833789,40.2244336 C19.8333789,40.2244336 19.6,40.1078125 19.3667578,39.8744336 C18.9001367,39.4078125 18.9001367,38.7078125 19.3667578,38.2410547 L47.8333789,9.77443359 C48.3,9.3078125 49,9.3078125 49.4667578,9.77443359 C49.9333789,10.2410547 49.9333789,10.9410547 49.4667578,11.4078125 L21,39.8744336 C20.7666211,40.1078125 20.5333789,40.2244336 20.1833789,40.2244336 L20.1833789,40.2244336 Z M16.45,30.7744336 C16.1,30.7744336 15.8666211,30.6578125 15.6333789,30.4244336 C15.1667578,29.9578125 15.1667578,29.2578125 15.6333789,28.7910547 L34.65,9.77443359 C35.1166211,9.3078125 35.8166211,9.3078125 36.2833789,9.77443359 C36.75,10.2410547 36.75,10.9410547 36.2833789,11.4078125 L17.2666211,30.4244336 C17.0333789,30.6578125 16.6833789,30.7744336 16.45,30.7744336 L16.45,30.7744336 Z M14.2333789,19.8078125 C13.8833789,19.8078125 13.65,19.6911914 13.4167578,19.4578125 C12.9501367,18.9911914 12.9501367,18.2911914 13.4167578,17.8244336 L21.4667578,9.77443359 C21.9333789,9.3078125 22.6333789,9.3078125 23.1001367,9.77443359 C23.5667578,10.2410547 23.5667578,10.9410547 23.1001367,11.4078125 L15.0501367,19.4578125 C14.8166211,19.6911914 14.5833789,19.8078125 14.2333789,19.8078125 L14.2333789,19.8078125 Z" id="Shape" fill="#BBBBBB"></path>
            </g>
        </g>
    </g>
</svg>