<?xml version="1.0" encoding="UTF-8"?>
<svg width="12px" height="16px" viewBox="0 0 12 16" version="1.1" xmlns="http://www.w3.org/2000/svg" xmlns:xlink="http://www.w3.org/1999/xlink">
    <!-- Generator: Sketch 52.1 (67048) - http://www.bohemiancoding.com/sketch -->
    <title>phone</title>
    <desc>Created with Sketch.</desc>
    <g id="退货售后" stroke="none" stroke-width="1" fill="none" fill-rule="evenodd">
        <g id="审核通过" transform="translate(-56.000000, -635.000000)" fill="#999999">
            <g id="Group" transform="translate(0.000000, 618.000000)">
                <g id="Path-2" transform="translate(56.000000, 17.000000)">
                    <path d="M10.2848447,10.4473478 C9.85010234,10.0747115 9.01167055,9.45882637 8.25604685,9.51575693 C8.00762261,9.53128344 7.7799004,9.62444253 7.59875774,9.77970768 L7.36586002,9.97637686 C7.21577037,10.1057645 7.00875019,10.152344 6.81725651,10.090238 C6.15479189,9.87804226 5.48197627,9.31391224 4.95407478,8.5168845 C4.42617328,7.71985677 4.16739804,6.87107397 4.21915308,6.1672053 C4.23467959,5.96536061 4.35371621,5.78421794 4.52450787,5.69105887 L4.79363412,5.54614472 C5.46127424,5.17868387 5.62171488,4.25744402 5.24907855,2.9428658 C4.94889926,1.88706282 4.04318592,-0.0899800344 2.74930972,0.00317905252 C2.6250976,0.0135300672 2.50088549,0.0394075813 2.38184887,0.0911626396 L1.48648653,0.453447972 C0.720511822,0.769153762 0.177083815,1.48337343 0.0683982134,2.31662971 C-0.252483091,4.7646435 0.565246677,7.68362822 2.31974281,10.3334867 C4.07423895,12.9833452 6.42391814,14.8465269 8.76842182,15.452061 C9.00649504,15.514167 9.24974377,15.534869 9.4929925,15.5193425 C10.062298,15.4779385 10.595375,15.2243388 10.9887134,14.8051229 L11.6563535,14.0960787 C11.8944267,13.8476545 12.2256591,13.2783489 11.7805656,12.305354 C11.5062639,11.720522 10.9369584,11.0063023 10.2848447,10.4473478 Z" id="phone"></path>
                </g>
            </g>
        </g>
    </g>
</svg>